<svg xmlns="http://www.w3.org/2000/svg" width="1024" height="1024" viewBox="0 0 1024 1024">
<g>
<path d="M 879.02 764.91 L 871.50 768.50 L 524.50 768.69 C245.86,768.84 176.71,768.62 173.50,767.60 C162.29,764.03 150.48,755.08 145.29,746.23 C141.91,740.47 139.00,730.83 139.00,725.41 L 139.00 721.00 L 205.00 721.00 L 205.00 692.00 C205.00,673.33 205.36,663.00 206.00,663.00 C206.64,663.00 207.00,673.33 207.00,692.00 L 207.00 721.00 L 838.00 721.00 L 838.00 634.50 C838.00,558.28 838.18,548.00 839.50,548.00 C840.82,548.00 841.00,558.28 841.00,634.50 L 841.00 721.00 L 906.00 721.00 L 906.00 725.84 C906.00,740.91 894.55,757.49 879.02,764.91 ZM 175.10 765.42 C179.77,766.67 226.94,766.88 522.54,766.93 C550.34,766.94 575.93,766.95 599.49,766.95 C863.36,767.04 872.92,767.04 879.18,762.49 C879.98,761.92 880.72,761.27 881.92,760.53 C893.65,753.38 901.57,741.71 903.52,728.69 L 904.23 724.00 L 585.11 724.00 L 584.80 728.75 L 584.50 733.50 L 461.00 734.02 L 461.00 724.00 L 301.00 724.00 C200.52,724.00 141.00,724.35 141.00,724.95 C141.00,725.47 141.51,728.29 142.13,731.20 C145.56,747.39 158.68,761.00 175.10,765.42 ZM 207.22 449.75 C207.04,496.16 206.58,523.00 205.97,523.00 C205.35,523.00 205.00,496.84 205.00,451.11 C205.00,381.85 205.07,378.97 207.02,372.69 C209.15,365.78 214.11,358.39 220.14,353.16 C225.97,348.08 233.89,344.99 243.72,343.96 C254.37,342.84 790.88,342.78 802.55,343.90 C812.70,344.87 820.25,348.23 827.34,354.94 C833.51,360.77 837.30,367.21 839.47,375.53 C841.69,384.06 841.76,451.00 839.54,451.00 C838.30,451.00 838.05,445.48 837.79,413.25 L 837.50 375.50 L 834.77 369.66 C831.10,361.83 827.11,357.00 820.78,352.70 C819.58,351.89 818.83,351.17 818.02,350.54 C812.10,345.94 802.60,345.95 585.34,346.18 C565.50,346.20 543.92,346.22 520.46,346.24 L 236.50 346.50 L 229.86 349.75 C221.45,353.86 213.11,362.59 209.83,370.72 L 207.50 376.50 ZM 850.14 519.35 C843.10,523.46 833.61,523.08 826.87,518.41 C815.34,510.42 815.56,488.19 827.24,480.46 C833.23,476.49 842.72,475.93 848.99,479.18 C862.94,486.40 863.66,511.45 850.14,519.35 ZM 809.00 518.00 L 809.00 522.00 L 804.67 522.00 C799.46,522.00 799.00,521.62 799.00,517.33 L 799.00 514.00 L 775.00 514.00 L 775.00 509.29 C775.00,505.04 775.86,503.26 783.75,491.31 L 792.50 478.04 L 809.00 478.00 L 809.00 505.00 L 812.00 505.00 C814.89,505.00 815.00,505.17 815.00,509.50 C815.00,513.83 814.89,514.00 812.00,514.00 C809.17,514.00 809.00,514.22 809.00,518.00 ZM 897.00 518.00 L 897.00 522.00 L 892.50 522.00 C890.03,522.00 887.95,521.66 887.90,521.25 C887.84,520.84 887.88,519.04 887.98,517.25 L 888.15 514.00 L 863.00 514.00 L 863.00 509.47 C863.00,505.44 863.97,503.49 872.02,491.47 L 881.04 478.00 L 897.00 478.00 L 897.00 505.00 L 900.00 505.00 C902.89,505.00 903.00,505.17 903.00,509.50 C903.00,513.83 902.89,514.00 900.00,514.00 C897.17,514.00 897.00,514.22 897.00,518.00 ZM 833.89 512.50 C842.39,517.12 850.00,511.23 850.00,500.03 C850.00,487.18 840.91,480.65 832.93,487.77 C826.52,493.50 827.12,508.82 833.89,512.50 ZM 207.08 590.08 C203.86,593.29 199.33,593.92 195.11,591.74 C192.57,590.42 192.49,588.27 195.00,588.84 C201.63,590.35 203.78,590.15 205.38,587.87 C207.59,584.72 207.52,582.54 205.25,583.60 C202.13,585.05 196.20,584.49 194.05,582.55 C191.29,580.04 191.26,573.74 194.01,570.99 C195.69,569.31 197.19,569.01 203.01,569.17 L 210.00 569.36 L 210.00 578.25 C210.00,586.76 209.87,587.28 207.08,590.08 ZM 276.25 625.64 C274.74,625.60 272.60,625.87 271.50,626.23 C268.39,627.28 263.50,624.63 262.05,621.12 C259.40,614.72 264.88,609.07 272.52,610.31 L 276.00 610.87 L 276.00 605.94 C276.00,602.22 276.37,601.00 277.50,601.00 C278.75,601.00 279.00,603.04 279.00,613.36 L 279.00 625.71 ZM 277.55 409.55 C273.84,413.25 268.00,412.97 264.59,408.92 C261.08,404.76 261.20,400.65 264.92,396.92 C268.65,393.20 272.76,393.08 276.92,396.59 C280.97,400.00 281.25,405.84 277.55,409.55 ZM 106.00 616.50 C106.00,624.28 105.73,626.00 104.50,626.00 C103.25,626.00 103.00,624.00 103.00,614.00 L 103.00 602.00 L 105.42 602.00 C107.32,602.00 109.27,604.01 114.67,611.56 L 121.50 621.11 L 121.79 611.56 C122.05,602.82 122.24,602.00 124.04,602.00 C125.88,602.00 126.00,602.74 126.00,614.00 L 126.00 626.00 L 123.58 626.00 C121.66,626.00 119.76,624.03 114.42,616.50 C110.72,611.28 107.31,607.00 106.84,607.00 C106.38,607.00 106.00,611.28 106.00,616.50 ZM 155.00 579.50 C155.00,584.60 154.33,585.99 152.67,584.33 C152.30,583.97 152.00,578.57 152.00,572.33 L 152.00 561.00 L 159.30 561.00 C167.69,561.00 169.00,561.83 169.00,567.14 C169.00,571.96 166.26,574.00 159.78,574.00 L 155.00 574.00 ZM 213.55 623.55 C210.20,626.89 205.15,626.83 201.08,623.41 C194.87,618.19 198.65,610.00 207.28,610.00 C215.29,610.00 219.02,618.07 213.55,623.55 ZM 146.20 623.31 C140.40,628.86 131.00,625.19 131.00,617.38 C131.00,612.95 134.83,610.00 140.56,610.00 C144.01,610.00 145.26,610.52 146.93,612.63 C149.82,616.32 149.57,620.08 146.20,623.31 ZM 228.56 583.58 C225.39,585.90 219.29,585.38 216.45,582.55 C210.97,577.06 214.71,569.00 222.74,569.00 C225.99,569.00 227.29,569.55 228.93,571.63 C230.07,573.08 231.00,575.11 231.00,576.13 C231.00,577.76 230.18,578.00 224.50,578.00 C217.56,578.00 216.49,578.96 220.51,581.60 C222.63,582.99 223.48,583.05 226.04,581.98 C229.63,580.50 231.32,581.56 228.56,583.58 ZM 879.65 495.00 L 872.99 505.00 L 888.00 505.00 L 888.00 495.00 C888.00,489.50 887.62,485.00 887.15,485.00 C886.69,485.00 883.31,489.50 879.65,495.00 ZM 182.93 583.75 C179.83,586.67 173.00,584.44 173.00,580.51 C173.00,577.49 176.46,575.00 180.66,575.00 C184.24,575.00 185.29,574.08 184.04,572.06 C183.46,571.12 181.95,570.88 179.10,571.26 C176.85,571.56 174.76,571.43 174.47,570.96 C173.70,569.71 177.40,568.00 180.86,568.00 C185.67,568.00 187.00,570.19 187.00,578.07 C187.00,584.32 185.91,587.03 184.71,583.75 C184.34,582.75 183.99,582.75 182.93,583.75 ZM 785.62 503.75 C785.06,504.70 786.57,505.00 791.94,505.00 L 799.00 505.00 L 799.00 495.00 C799.00,489.50 798.79,485.00 798.53,485.00 C798.13,485.00 788.01,499.71 785.62,503.75 ZM 181.80 620.17 C181.63,623.19 180.98,625.51 180.25,625.75 C179.30,626.07 179.00,623.30 179.00,614.08 L 179.00 602.00 L 187.08 602.00 C193.10,602.00 195.06,602.32 194.75,603.25 C194.50,604.03 191.98,604.61 188.11,604.80 L 181.89 605.10 L 182.50 612.50 L 188.25 612.80 C195.84,613.20 195.68,615.00 188.05,615.00 L 182.10 615.00 ZM 231.80 624.80 C229.98,626.62 224.53,626.25 222.65,624.17 C220.39,621.67 220.27,610.00 222.50,610.00 C223.66,610.00 224.00,611.31 224.00,615.80 C224.00,621.72 225.12,624.00 228.05,624.00 C231.11,624.00 233.00,620.63 233.00,615.17 C233.00,611.24 233.36,610.00 234.50,610.00 C235.71,610.00 236.00,611.56 236.00,618.00 C236.00,624.44 235.71,626.00 234.50,626.00 C233.68,626.00 233.00,625.46 233.00,624.80 C233.00,623.87 232.73,623.87 231.80,624.80 ZM 244.81 619.95 C244.63,623.14 243.99,625.51 243.25,625.75 C242.32,626.06 242.00,624.14 242.00,618.26 L 242.00 610.36 L 248.47 610.18 C256.23,609.97 257.00,610.85 257.00,619.93 C257.00,624.66 256.67,626.00 255.50,626.00 C254.34,626.00 254.00,624.69 254.00,620.20 C254.00,613.99 252.89,612.00 249.42,612.00 C246.25,612.00 245.16,613.89 244.81,619.95 ZM 267.22 622.44 C270.27,624.58 271.69,624.41 274.55,621.55 C277.41,618.69 277.58,617.27 275.44,614.22 C273.59,611.58 268.90,611.24 266.57,613.57 C264.24,615.90 264.58,620.59 267.22,622.44 ZM 137.50 622.81 C140.37,624.43 141.74,624.26 144.00,622.00 C146.43,619.57 146.57,616.29 144.35,613.83 C142.17,611.43 138.50,611.50 136.00,614.00 C132.88,617.12 133.45,620.51 137.50,622.81 ZM 204.22 622.44 C205.44,623.30 206.92,624.00 207.50,624.00 C210.03,624.00 213.00,620.77 213.00,618.01 C213.00,612.97 208.59,610.55 203.93,613.04 C201.12,614.54 201.30,620.40 204.22,622.44 ZM 197.22 580.44 C200.96,583.06 203.73,582.35 205.92,578.18 C207.75,574.71 205.05,571.00 200.68,571.00 C198.87,571.00 196.86,571.54 196.20,572.20 C194.21,574.19 194.77,578.73 197.22,580.44 ZM 161.97 626.04 C160.23,627.14 160.16,627.14 157.25,625.97 C155.27,625.17 155.00,624.35 155.00,619.15 C155.00,614.07 154.72,613.16 153.00,612.71 C151.90,612.42 151.00,611.70 151.00,611.09 C151.00,610.49 151.90,610.00 153.00,610.00 C154.33,610.00 155.00,609.33 155.00,608.00 C155.00,606.89 155.67,606.00 156.50,606.00 C157.33,606.00 158.00,606.89 158.00,608.00 C158.00,609.47 158.67,610.00 160.50,610.00 C161.88,610.00 163.00,610.45 163.00,611.00 C163.00,611.55 161.85,612.00 160.45,612.00 C158.00,612.00 157.91,612.22 158.20,617.15 C158.43,621.06 158.98,622.56 160.50,623.40 C161.60,624.00 162.71,624.64 162.97,624.80 C163.23,624.97 162.78,625.53 161.97,626.04 ZM 155.00 562.89 L 155.00 571.11 L 159.65 570.80 C168.41,570.23 168.41,563.77 159.65,563.20 ZM 218.75 575.31 C222.10,576.19 226.89,575.99 227.53,574.96 C228.65,573.14 225.88,571.00 222.41,571.00 C218.53,571.00 215.58,574.48 218.75,575.31 ZM 176.67 582.33 C177.75,583.42 181.51,583.09 182.80,581.80 C184.92,579.68 184.24,577.00 181.58,577.00 C180.25,577.00 178.45,577.27 177.58,577.61 C175.99,578.22 175.43,581.10 176.67,582.33 Z" fill="rgb(32,28,28)"/>
<path d="M 800.01 721.00 L 245.00 721.00 L 245.00 663.00 L 265.25 662.98 C282.76,662.96 286.05,662.71 289.56,661.11 C294.65,658.80 300.73,651.80 301.74,647.09 C302.16,645.11 302.50,620.55 302.50,592.50 C302.50,537.70 302.45,537.06 297.29,530.93 C295.89,529.27 292.89,526.94 290.62,525.76 C286.88,523.80 284.59,523.57 265.74,523.19 L 244.98 522.77 L 245.50 427.50 L 799.50 427.50 L 800.06 451.00 L 773.78 451.02 C750.43,451.04 747.05,451.25 743.50,452.88 C738.74,455.07 736.61,457.30 734.54,462.25 C733.26,465.32 733.00,471.56 733.00,499.50 C733.00,534.84 733.28,537.34 737.79,542.32 C742.19,547.18 743.96,547.47 772.50,548.00 L 799.50 548.50 L 800.01 721.00 ZM 799.50 378.50 L 799.50 424.50 L 522.25 424.75 L 245.00 425.00 L 245.00 378.00 L 522.25 378.25 ZM 355.22 624.44 C358.38,626.66 359.50,626.47 370.58,621.96 C401.29,609.46 439.02,600.02 477.00,595.34 C495.15,593.10 545.15,592.80 563.50,594.82 C601.97,599.06 642.54,609.00 674.51,622.01 C679.91,624.20 685.12,626.00 686.09,626.00 C690.52,626.00 692.75,618.79 689.25,615.83 C688.29,615.02 682.10,612.29 675.50,609.78 C639.42,596.04 606.32,588.02 566.50,583.36 C545.44,580.90 498.24,580.90 478.00,583.37 C446.71,587.19 426.63,591.30 398.75,599.61 C380.54,605.04 355.93,614.50 354.25,616.73 C352.33,619.27 352.76,622.72 355.22,624.44 ZM 583.57 543.43 C586.33,546.19 588.37,545.18 596.48,537.02 L 604.41 529.04 L 612.58 537.02 C617.08,541.41 621.45,545.00 622.31,545.00 C624.49,545.00 627.00,542.23 627.00,539.81 C627.00,538.62 623.82,534.50 619.33,529.89 L 611.65 522.00 L 619.33 514.11 C627.57,505.64 628.56,503.07 624.57,500.45 C621.42,498.39 620.30,499.03 611.55,507.91 L 604.59 514.96 L 596.42 506.98 C591.92,502.59 587.55,499.00 586.69,499.00 C584.51,499.00 582.00,501.77 582.00,504.19 C582.00,505.38 585.19,509.51 589.70,514.14 L 597.40 522.05 L 589.70 529.80 C581.77,537.77 580.58,540.43 583.57,543.43 ZM 419.75 543.92 C422.92,545.77 424.19,545.08 432.37,537.06 L 440.48 529.11 L 448.62 537.06 C453.09,541.43 457.45,545.00 458.31,545.00 C460.49,545.00 463.00,542.23 463.00,539.81 C463.00,538.62 459.82,534.50 455.33,529.89 L 447.65 522.00 L 455.33 514.11 C463.57,505.64 464.56,503.07 460.57,500.45 C457.42,498.39 456.30,499.03 447.52,507.93 L 440.55 515.00 L 433.02 507.60 C424.76,499.47 422.08,498.06 419.61,500.54 C416.67,503.48 417.81,506.04 425.70,514.14 L 433.40 522.05 L 425.70 529.80 C417.63,537.92 416.02,541.74 419.75,543.92 ZM 295.59 408.92 C297.74,411.49 298.90,412.00 302.50,412.00 C306.10,412.00 307.26,411.49 309.41,408.92 C312.28,405.52 312.59,403.39 310.81,399.47 C309.60,396.82 305.36,394.00 302.60,394.00 C299.68,394.00 295.83,396.42 294.43,399.15 C292.38,403.11 292.65,405.43 295.59,408.92 ZM 327.45 409.55 C329.23,411.32 331.00,412.00 333.84,412.00 C339.15,412.00 341.99,409.52 342.69,404.29 C343.19,400.57 342.90,399.75 340.20,397.05 C336.14,392.99 331.90,392.95 327.92,396.92 C324.10,400.74 323.91,406.00 327.45,409.55 ZM 277.55 409.55 C281.25,405.84 280.97,400.00 276.92,396.59 C272.76,393.08 268.65,393.20 264.92,396.92 C261.20,400.65 261.08,404.76 264.59,408.92 C268.00,412.97 273.84,413.25 277.55,409.55 Z" fill="rgb(254,90,1)"/>
<path d="M 0.00 512.00 L 0.00 0.00 L 512.00 0.00 L 1024.00 0.00 L 1024.00 512.00 L 1024.00 1024.00 L 512.00 1024.00 L 0.00 1024.00 L 0.00 512.00 ZM 879.02 764.91 C894.55,757.49 906.00,740.91 906.00,725.84 L 906.00 721.00 L 873.50 721.00 L 841.00 721.00 L 841.00 634.50 C841.00,558.28 840.82,548.00 839.50,548.00 C838.18,548.00 838.00,558.28 838.00,634.50 L 838.00 721.00 L 819.01 721.00 L 800.01 721.00 L 799.76 634.75 L 799.50 548.50 L 772.50 548.00 C743.96,547.47 742.19,547.18 737.79,542.32 C733.28,537.34 733.00,534.84 733.00,499.50 C733.00,471.56 733.26,465.32 734.54,462.25 C736.61,457.30 738.74,455.07 743.50,452.88 C747.05,451.25 750.43,451.04 773.78,451.02 L 800.06 451.00 L 799.78 439.25 L 799.50 427.50 L 522.50 427.50 L 245.50 427.50 L 245.24 475.14 L 244.98 522.77 L 265.74 523.19 C284.59,523.57 286.88,523.80 290.62,525.76 C292.89,526.94 295.89,529.27 297.29,530.93 C302.45,537.06 302.50,537.70 302.50,592.50 C302.50,620.55 302.16,645.11 301.74,647.09 C300.73,651.80 294.65,658.80 289.56,661.11 C286.05,662.71 282.76,662.96 265.25,662.98 L 245.00 663.00 L 245.00 692.00 L 245.00 721.00 L 226.00 721.00 L 207.00 721.00 L 207.00 692.00 C207.00,673.33 206.64,663.00 206.00,663.00 C205.36,663.00 205.00,673.33 205.00,692.00 L 205.00 721.00 L 172.00 721.00 L 139.00 721.00 L 139.00 725.41 C139.00,730.83 141.91,740.47 145.29,746.23 C150.48,755.08 162.29,764.03 173.50,767.60 C176.71,768.62 245.86,768.84 524.50,768.69 L 871.50 768.50 L 879.02 764.91 ZM 161.97 626.04 C162.78,625.53 163.23,624.97 162.97,624.80 C162.71,624.64 161.60,624.00 160.50,623.40 C158.98,622.56 158.43,621.06 158.20,617.15 C157.91,612.22 158.00,612.00 160.45,612.00 C161.85,612.00 163.00,611.55 163.00,611.00 C163.00,610.45 161.88,610.00 160.50,610.00 C158.67,610.00 158.00,609.47 158.00,608.00 C158.00,606.89 157.33,606.00 156.50,606.00 C155.67,606.00 155.00,606.89 155.00,608.00 C155.00,609.33 154.33,610.00 153.00,610.00 C151.90,610.00 151.00,610.49 151.00,611.09 C151.00,611.70 151.90,612.42 153.00,612.71 C154.72,613.16 155.00,614.07 155.00,619.15 C155.00,624.35 155.27,625.17 157.25,625.97 C160.16,627.14 160.23,627.14 161.97,626.04 ZM 276.25 625.64 L 279.00 625.71 L 279.00 613.36 C279.00,603.04 278.75,601.00 277.50,601.00 C276.37,601.00 276.00,602.22 276.00,605.94 L 276.00 610.87 L 272.52 610.31 C264.88,609.07 259.40,614.72 262.05,621.12 C263.50,624.63 268.39,627.28 271.50,626.23 C272.60,625.87 274.74,625.60 276.25,625.64 ZM 106.00 616.50 C106.00,611.28 106.38,607.00 106.84,607.00 C107.31,607.00 110.72,611.28 114.42,616.50 C119.76,624.03 121.66,626.00 123.58,626.00 L 126.00 626.00 L 126.00 614.00 C126.00,602.74 125.88,602.00 124.04,602.00 C122.24,602.00 122.05,602.82 121.79,611.56 L 121.50 621.11 L 114.67 611.56 C109.27,604.01 107.32,602.00 105.42,602.00 L 103.00 602.00 L 103.00 614.00 C103.00,624.00 103.25,626.00 104.50,626.00 C105.73,626.00 106.00,624.28 106.00,616.50 ZM 146.20 623.31 C149.57,620.08 149.82,616.32 146.93,612.63 C145.26,610.52 144.01,610.00 140.56,610.00 C134.83,610.00 131.00,612.95 131.00,617.38 C131.00,625.19 140.40,628.86 146.20,623.31 ZM 181.80 620.17 L 182.10 615.00 L 188.05 615.00 C195.68,615.00 195.84,613.20 188.25,612.80 L 182.50 612.50 L 182.19 608.80 L 181.89 605.10 L 188.11 604.80 C191.98,604.61 194.50,604.03 194.75,603.25 C195.06,602.32 193.10,602.00 187.08,602.00 L 179.00 602.00 L 179.00 614.08 C179.00,623.30 179.30,626.07 180.25,625.75 C180.98,625.51 181.63,623.19 181.80,620.17 ZM 213.55 623.55 C219.02,618.07 215.29,610.00 207.28,610.00 C198.65,610.00 194.87,618.19 201.08,623.41 C205.15,626.83 210.20,626.89 213.55,623.55 ZM 231.80 624.80 C232.73,623.87 233.00,623.87 233.00,624.80 C233.00,625.46 233.68,626.00 234.50,626.00 C235.71,626.00 236.00,624.44 236.00,618.00 C236.00,611.56 235.71,610.00 234.50,610.00 C233.36,610.00 233.00,611.24 233.00,615.17 C233.00,620.63 231.11,624.00 228.05,624.00 C225.12,624.00 224.00,621.72 224.00,615.80 C224.00,611.31 223.66,610.00 222.50,610.00 C220.27,610.00 220.39,621.67 222.65,624.17 C224.53,626.25 229.98,626.62 231.80,624.80 ZM 244.81 619.95 C245.16,613.89 246.25,612.00 249.42,612.00 C252.89,612.00 254.00,613.99 254.00,620.20 C254.00,624.69 254.34,626.00 255.50,626.00 C256.67,626.00 257.00,624.66 257.00,619.93 C257.00,610.85 256.23,609.97 248.47,610.18 L 242.00 610.36 L 242.00 618.26 C242.00,624.14 242.32,626.06 243.25,625.75 C243.99,625.51 244.63,623.14 244.81,619.95 ZM 207.08 590.08 C209.87,587.28 210.00,586.76 210.00,578.25 L 210.00 569.36 L 203.01 569.17 C197.19,569.01 195.69,569.31 194.01,570.99 C191.26,573.74 191.29,580.04 194.05,582.55 C196.20,584.49 202.13,585.05 205.25,583.60 C207.52,582.54 207.59,584.72 205.38,587.87 C203.78,590.15 201.63,590.35 195.00,588.84 C192.49,588.27 192.57,590.42 195.11,591.74 C199.33,593.92 203.86,593.29 207.08,590.08 ZM 155.00 579.50 L 155.00 574.00 L 159.78 574.00 C166.26,574.00 169.00,571.96 169.00,567.14 C169.00,561.83 167.69,561.00 159.30,561.00 L 152.00 561.00 L 152.00 572.33 C152.00,578.57 152.30,583.97 152.67,584.33 C154.33,585.99 155.00,584.60 155.00,579.50 ZM 182.93 583.75 C183.99,582.75 184.34,582.75 184.71,583.75 C185.91,587.03 187.00,584.32 187.00,578.07 C187.00,570.19 185.67,568.00 180.86,568.00 C177.40,568.00 173.70,569.71 174.47,570.96 C174.76,571.43 176.85,571.56 179.10,571.26 C181.95,570.88 183.46,571.12 184.04,572.06 C185.29,574.08 184.24,575.00 180.66,575.00 C176.46,575.00 173.00,577.49 173.00,580.51 C173.00,584.44 179.83,586.67 182.93,583.75 ZM 228.56 583.58 C231.32,581.56 229.63,580.50 226.04,581.98 C223.48,583.05 222.63,582.99 220.51,581.60 C216.49,578.96 217.56,578.00 224.50,578.00 C230.18,578.00 231.00,577.76 231.00,576.13 C231.00,575.11 230.07,573.08 228.93,571.63 C227.29,569.55 225.99,569.00 222.74,569.00 C214.71,569.00 210.97,577.06 216.45,582.55 C219.29,585.38 225.39,585.90 228.56,583.58 ZM 207.22 449.75 L 207.50 376.50 L 209.83 370.72 C213.11,362.59 221.45,353.86 229.86,349.75 L 236.50 346.50 L 520.46 346.24 C836.05,345.95 810.01,345.39 820.78,352.70 C827.11,357.00 831.10,361.83 834.77,369.66 L 837.50 375.50 L 837.79 413.25 C838.05,445.48 838.30,451.00 839.54,451.00 C841.76,451.00 841.69,384.06 839.47,375.53 C837.30,367.21 833.51,360.77 827.34,354.94 C820.25,348.23 812.70,344.87 802.55,343.90 C790.88,342.78 254.37,342.84 243.72,343.96 C233.89,344.99 225.97,348.08 220.14,353.16 C214.11,358.39 209.15,365.78 207.02,372.69 C205.07,378.97 205.00,381.85 205.00,451.11 C205.00,496.84 205.35,523.00 205.97,523.00 C206.58,523.00 207.04,496.16 207.22,449.75 ZM 850.14 519.35 C863.66,511.45 862.94,486.40 848.99,479.18 C842.72,475.93 833.23,476.49 827.24,480.46 C815.56,488.19 815.34,510.42 826.87,518.41 C833.61,523.08 843.10,523.46 850.14,519.35 ZM 809.00 518.00 C809.00,514.22 809.17,514.00 812.00,514.00 C814.89,514.00 815.00,513.83 815.00,509.50 C815.00,505.17 814.89,505.00 812.00,505.00 L 809.00 505.00 L 809.00 491.50 L 809.00 478.00 L 800.75 478.02 L 792.50 478.04 L 783.75 491.31 C775.86,503.26 775.00,505.04 775.00,509.29 L 775.00 514.00 L 787.00 514.00 L 799.00 514.00 L 799.00 517.33 C799.00,521.62 799.46,522.00 804.67,522.00 L 809.00 522.00 L 809.00 518.00 ZM 897.00 518.00 C897.00,514.22 897.17,514.00 900.00,514.00 C902.89,514.00 903.00,513.83 903.00,509.50 C903.00,505.17 902.89,505.00 900.00,505.00 L 897.00 505.00 L 897.00 491.50 L 897.00 478.00 L 889.02 478.00 L 881.04 478.00 L 872.02 491.47 C863.97,503.49 863.00,505.44 863.00,509.47 L 863.00 514.00 L 875.58 514.00 L 888.15 514.00 L 887.98 517.25 C887.88,519.04 887.84,520.84 887.90,521.25 C887.95,521.66 890.03,522.00 892.50,522.00 L 897.00 522.00 L 897.00 518.00 ZM 799.50 401.50 L 799.50 378.50 L 522.25 378.25 L 245.00 378.00 L 245.00 401.50 L 245.00 425.00 L 522.25 424.75 L 799.50 424.50 L 799.50 401.50 ZM 175.10 765.42 C158.68,761.00 145.56,747.39 142.13,731.20 C141.51,728.29 141.00,725.47 141.00,724.95 C141.00,724.35 200.52,724.00 301.00,724.00 L 461.00 724.00 L 461.00 729.01 L 461.00 734.02 L 522.75 733.76 L 584.50 733.50 L 584.80 728.75 L 585.11 724.00 L 744.67 724.00 L 904.23 724.00 L 903.52 728.69 C901.57,741.71 893.65,753.38 881.92,760.53 C870.41,767.55 901.13,767.01 522.54,766.93 C226.94,766.88 179.77,766.67 175.10,765.42 ZM 355.22 624.44 C352.76,622.72 352.33,619.27 354.25,616.73 C355.93,614.50 380.54,605.04 398.75,599.61 C426.63,591.30 446.71,587.19 478.00,583.37 C498.24,580.90 545.44,580.90 566.50,583.36 C606.32,588.02 639.42,596.04 675.50,609.78 C682.10,612.29 688.29,615.02 689.25,615.83 C692.75,618.79 690.52,626.00 686.09,626.00 C685.12,626.00 679.91,624.20 674.51,622.01 C642.54,609.00 601.97,599.06 563.50,594.82 C545.15,592.80 495.15,593.10 477.00,595.34 C439.02,600.02 401.29,609.46 370.58,621.96 C359.50,626.47 358.38,626.66 355.22,624.44 ZM 419.75 543.92 C416.02,541.74 417.63,537.92 425.70,529.80 L 433.40 522.05 L 425.70 514.14 C417.81,506.04 416.67,503.48 419.61,500.54 C422.08,498.06 424.76,499.47 433.02,507.60 L 440.55 515.00 L 447.52 507.93 C456.30,499.03 457.42,498.39 460.57,500.45 C464.56,503.07 463.57,505.64 455.33,514.11 L 447.65 522.00 L 455.33 529.89 C459.82,534.50 463.00,538.62 463.00,539.81 C463.00,542.23 460.49,545.00 458.31,545.00 C457.45,545.00 453.09,541.43 448.62,537.06 L 440.48 529.11 L 432.37 537.06 C424.19,545.08 422.92,545.77 419.75,543.92 ZM 583.57 543.43 C580.58,540.43 581.77,537.77 589.70,529.80 L 597.40 522.05 L 589.70 514.14 C585.19,509.51 582.00,505.38 582.00,504.19 C582.00,501.77 584.51,499.00 586.69,499.00 C587.55,499.00 591.92,502.59 596.42,506.98 L 604.59 514.96 L 611.55 507.91 C620.30,499.03 621.42,498.39 624.57,500.45 C628.56,503.07 627.57,505.64 619.33,514.11 L 611.65 522.00 L 619.33 529.89 C623.82,534.50 627.00,538.62 627.00,539.81 C627.00,542.23 624.49,545.00 622.31,545.00 C621.45,545.00 617.08,541.41 612.58,537.02 L 604.41 529.04 L 596.48 537.02 C588.37,545.18 586.33,546.19 583.57,543.43 ZM 267.22 622.44 C264.58,620.59 264.24,615.90 266.57,613.57 C268.90,611.24 273.59,611.58 275.44,614.22 C277.58,617.27 277.41,618.69 274.55,621.55 C271.69,624.41 270.27,624.58 267.22,622.44 ZM 137.50 622.81 C133.45,620.51 132.88,617.12 136.00,614.00 C138.50,611.50 142.17,611.43 144.35,613.83 C146.57,616.29 146.43,619.57 144.00,622.00 C141.74,624.26 140.37,624.43 137.50,622.81 ZM 204.22 622.44 C201.30,620.40 201.12,614.54 203.93,613.04 C208.59,610.55 213.00,612.97 213.00,618.01 C213.00,620.77 210.03,624.00 207.50,624.00 C206.92,624.00 205.44,623.30 204.22,622.44 ZM 197.22 580.44 C194.77,578.73 194.21,574.19 196.20,572.20 C196.86,571.54 198.87,571.00 200.68,571.00 C205.05,571.00 207.75,574.71 205.92,578.18 C203.73,582.35 200.96,583.06 197.22,580.44 ZM 155.00 567.00 L 155.00 562.89 L 159.65 563.20 C168.41,563.77 168.41,570.23 159.65,570.80 L 155.00 571.11 L 155.00 567.00 ZM 176.67 582.33 C175.43,581.10 175.99,578.22 177.58,577.61 C178.45,577.27 180.25,577.00 181.58,577.00 C184.24,577.00 184.92,579.68 182.80,581.80 C181.51,583.09 177.75,583.42 176.67,582.33 ZM 218.75 575.31 C215.58,574.48 218.53,571.00 222.41,571.00 C225.88,571.00 228.65,573.14 227.53,574.96 C226.89,575.99 222.10,576.19 218.75,575.31 ZM 833.89 512.50 C827.12,508.82 826.52,493.50 832.93,487.77 C840.91,480.65 850.00,487.18 850.00,500.03 C850.00,511.23 842.39,517.12 833.89,512.50 ZM 785.62 503.75 C788.01,499.71 798.13,485.00 798.53,485.00 C798.79,485.00 799.00,489.50 799.00,495.00 L 799.00 505.00 L 791.94 505.00 C786.57,505.00 785.06,504.70 785.62,503.75 ZM 879.65 495.00 C883.31,489.50 886.69,485.00 887.15,485.00 C887.62,485.00 888.00,489.50 888.00,495.00 L 888.00 505.00 L 880.49 505.00 L 872.99 505.00 L 879.65 495.00 ZM 295.59 408.92 C292.65,405.43 292.38,403.11 294.43,399.15 C295.83,396.42 299.68,394.00 302.60,394.00 C305.36,394.00 309.60,396.82 310.81,399.47 C312.59,403.39 312.28,405.52 309.41,408.92 C307.26,411.49 306.10,412.00 302.50,412.00 C298.90,412.00 297.74,411.49 295.59,408.92 ZM 327.45 409.55 C323.91,406.00 324.10,400.74 327.92,396.92 C331.90,392.95 336.14,392.99 340.20,397.05 C342.90,399.75 343.19,400.57 342.69,404.29 C341.99,409.52 339.15,412.00 333.84,412.00 C331.00,412.00 329.23,411.32 327.45,409.55 Z" fill="rgb(254,254,254)"/>
</g>
</svg>